<?xml version="1.0"?>
<svg xmlns="http://www.w3.org/2000/svg" height="512px" viewBox="0 0 512 512.0005" width="512px"><path d="m482 333.582031v-205.96875l20.25-7.5625c5.851562-2.183593 9.738281-7.773437 9.75-14.023437s-3.855469-11.851563-9.699219-14.058594l-241-91c-3.417969-1.292969-7.183593-1.292969-10.597656 0l-241 91c-5.851563 2.207031-9.7148438 7.808594-9.703125 14.058594s3.898438 11.839844 9.753906 14.023437l81.246094 30.34375v109.355469c0 6.132812 3.734375 11.648438 9.429688 13.925781 49.699218 19.882813 102.042968 29.960938 155.570312 29.960938s105.871094-10.078125 155.570312-29.960938c5.695313-2.277343 9.429688-7.792969 9.429688-13.925781v-109.355469l31-11.578125v194.765625c-17.457031 6.191407-30 22.863281-30 42.417969 0 11.515625 4.355469 22.03125 11.496094 30-7.140625 7.96875-11.496094 18.484375-11.496094 30v61c0 8.285156 6.714844 15 15 15h60c8.285156 0 15-6.714844 15-15v-61c0-11.515625-4.355469-22.03125-11.496094-30 7.144532-7.96875 11.496094-18.484375 11.496094-30 0-19.554688-12.539062-36.226562-30-42.417969zm-226-302.546875 198.332031 74.886719c-8.78125 3.28125-189.585937 70.800781-198.332031 74.066406-6.605469-2.464843-184.097656-68.75-198.332031-74.066406zm135 218.421875c-87.445312 32.410157-182.554688 32.410157-270 0v-87.859375l129.753906 48.457032c3.382813 1.261718 7.109375 1.261718 10.496094 0l129.75-48.457032zm76 111.542969c8.269531 0 15 6.730469 15 15 0 8.273438-6.730469 15-15 15s-15-6.726562-15-15c0-8.269531 6.730469-15 15-15zm15 121h-30v-46c0-8.269531 6.730469-15 15-15s15 6.730469 15 15zm0 0" fill="#FFFFFF"/><path d="m271 106c0 8.285156-6.714844 15-15 15s-15-6.714844-15-15 6.714844-15 15-15 15 6.714844 15 15zm0 0" fill="#FFFFFF"/></svg>
