<svg width="30" height="31" viewBox="0 0 30 31" xmlns="http://www.w3.org/2000/svg"><g fill="#FFFFFE" fill-rule="evenodd"><path d="M6.265 27.26C3.12 25 .885 21.54.23 17.552c1.33.362 2.636.72 3.916 1.07 2.914.795 5.705 1.573 8.38 2.313-1.917 1.942-3.998 4.04-6.26 6.323M15.574 30.02c-.232.01-.465.017-.7.017-3.06 0-5.912-.94-8.278-2.547 2.584-1.916 4.965-3.683 7.164-5.312.587 2.516 1.194 5.13 1.814 7.84M23.34 27.36c-1.578 1.107-3.378 1.913-5.317 2.337l.384-6.577 4.933 4.24M28.145 21.792c-1.04 2.076-2.548 3.88-4.385 5.265l-4.034-5.24 8.42-.025M14.875.208c8.176 0 14.845 6.7 14.845 14.913 0 2.086-.432 4.072-1.205 5.878l-3.415-1.11-6.416-2.073L23.5 12.6l-5.93 4.086-1.72-6.17-1.58-5.613-.455 5.12-.496 5.448L4.57 8.09l7.198 8.576-7.604-.31c-1.33-.047-2.692-.097-4.095-.145-.026-.36-.04-.722-.04-1.09C.03 6.908 6.697.21 14.874.21"/><path d="M15.552 17.663c.454-.045.9.094 1.225.37.34.286.56.718.557 1.217-.005.51-.24.977-.605 1.305-.362.32-.837.5-1.33.466-.47-.03-.867-.252-1.13-.57-.253-.304-.387-.704-.355-1.134.033-.423.222-.81.507-1.103.29-.297.676-.505 1.13-.55"/></g></svg>