<?xml version="1.0" encoding="iso-8859-1"?>
<!-- Generator: Adobe Illustrator 16.0.0, SVG Export Plug-In . SVG Version: 6.00 Build 0)  -->
<!DOCTYPE svg PUBLIC "-//W3C//DTD SVG 1.1//EN" "http://www.w3.org/Graphics/SVG/1.1/DTD/svg11.dtd">
<svg xmlns="http://www.w3.org/2000/svg" xmlns:xlink="http://www.w3.org/1999/xlink" version="1.1" id="Capa_1" x="0px" y="0px" width="512px" height="512px" viewBox="0 0 592.017 592.017" style="enable-background:new 0 0 592.017 592.017;" xml:space="preserve">
<g>
	<g>
		<g>
			<path d="M228.471,381.202h141.581c11.83,0,21.42-9.591,21.42-21.421c0-11.829-9.59-21.42-21.42-21.42H228.471     c-11.83,0-21.42,9.591-21.42,21.42C207.051,371.611,216.641,381.202,228.471,381.202z" fill="#FFFFFF"/>
			<path d="M370.052,381.702H228.471c-12.087,0-21.92-9.834-21.92-21.921s9.833-21.92,21.92-21.92h141.581     c12.087,0,21.92,9.833,21.92,21.92S382.139,381.702,370.052,381.702z M228.471,338.861c-11.535,0-20.92,9.385-20.92,20.92     c0,11.536,9.385,20.921,20.92,20.921h141.581c11.535,0,20.92-9.385,20.92-20.921c0-11.535-9.385-20.92-20.92-20.92H228.471z" fill="#FFFFFF"/>
		</g>
		<g>
			<path d="M99.597,362.871c4.183,4.183,9.665,6.273,15.146,6.273c5.482,0,10.964-2.091,15.146-6.273l56.7-56.699     c4.209-4.21,6.298-9.738,6.271-15.255c0.028-5.518-2.061-11.045-6.271-15.255l-56.7-56.699c-8.365-8.366-21.927-8.365-30.292,0     c-8.365,8.365-8.365,21.927,0,30.292l41.663,41.663l-41.663,41.662C91.232,340.943,91.232,354.506,99.597,362.871z" fill="#FFFFFF"/>
			<path d="M114.743,369.645c-5.854,0-11.359-2.28-15.5-6.42c-4.14-4.141-6.42-9.645-6.42-15.5c0-5.854,2.28-11.359,6.42-15.499     l41.309-41.309l-41.309-41.309c-8.546-8.547-8.546-22.453,0-31c4.14-4.141,9.645-6.42,15.5-6.42s11.359,2.28,15.5,6.42     l56.7,56.699c4.168,4.168,6.448,9.713,6.417,15.611c0.029,5.895-2.25,11.438-6.417,15.606l-56.7,56.699     C126.104,367.364,120.599,369.645,114.743,369.645z M114.744,213.188c-5.588,0-10.841,2.176-14.793,6.127     c-8.156,8.157-8.156,21.428,0,29.585l42.016,42.016l-42.016,42.016c-3.951,3.951-6.127,9.204-6.127,14.792     s2.176,10.842,6.127,14.793c3.952,3.951,9.205,6.127,14.792,6.127c5.589,0,10.842-2.176,14.793-6.127l56.7-56.699     c3.978-3.978,6.152-9.27,6.125-14.899c0.029-5.635-2.146-10.926-6.125-14.904l-56.7-56.699     C125.585,215.364,120.332,213.188,114.744,213.188z" fill="#FFFFFF"/>
		</g>
		<g>
			<path d="M0.5,524.857c0,32.058,26.082,58.14,58.14,58.14h474.736c32.059,0,58.141-26.082,58.141-58.14V67.159     c0-32.058-26.082-58.14-58.141-58.14H58.64C26.582,9.02,0.5,35.101,0.5,67.159V524.857z M548.677,524.857     c0,8.449-6.851,15.3-15.301,15.3H58.64c-8.45,0-15.3-6.851-15.3-15.3V175.483h505.336V524.857z M43.34,67.159     c0-8.45,6.85-15.3,15.3-15.3h474.736c8.45,0,15.301,6.85,15.301,15.3v65.484H43.34V67.159z" fill="#FFFFFF"/>
			<path d="M533.376,583.497H58.64c-32.334,0-58.64-26.306-58.64-58.64V67.159C0,34.825,26.306,8.52,58.64,8.52h474.736     c32.335,0,58.641,26.306,58.641,58.64v457.698C592.017,557.191,565.711,583.497,533.376,583.497z M58.64,9.52     C26.857,9.52,1,35.376,1,67.159v457.698c0,31.782,25.857,57.64,57.64,57.64h474.736c31.783,0,57.641-25.857,57.641-57.64V67.159     c0-31.783-25.857-57.64-57.641-57.64H58.64z M533.376,540.657H58.64c-8.712,0-15.8-7.088-15.8-15.8V174.983h506.336v349.874     C549.177,533.569,542.089,540.657,533.376,540.657z M43.84,175.983v348.874c0,8.161,6.639,14.8,14.8,14.8h474.736     c8.161,0,14.801-6.639,14.801-14.8V175.983H43.84z M549.177,133.144H42.84V67.159c0-8.712,7.088-15.8,15.8-15.8h474.736     c8.713,0,15.801,7.088,15.801,15.8V133.144z M43.84,132.144h504.336V67.159c0-8.161-6.64-14.8-14.801-14.8H58.64     c-8.161,0-14.8,6.639-14.8,14.8V132.144z" fill="#FFFFFF"/>
		</g>
	</g>
</g>
<g>
</g>
<g>
</g>
<g>
</g>
<g>
</g>
<g>
</g>
<g>
</g>
<g>
</g>
<g>
</g>
<g>
</g>
<g>
</g>
<g>
</g>
<g>
</g>
<g>
</g>
<g>
</g>
<g>
</g>
</svg>
