<?xml version="1.0" encoding="iso-8859-1"?>
<!-- Generator: Adobe Illustrator 17.1.0, SVG Export Plug-In . SVG Version: 6.00 Build 0)  -->
<!DOCTYPE svg PUBLIC "-//W3C//DTD SVG 1.1//EN" "http://www.w3.org/Graphics/SVG/1.1/DTD/svg11.dtd">
<svg xmlns="http://www.w3.org/2000/svg" xmlns:xlink="http://www.w3.org/1999/xlink" version="1.1" id="Capa_1" x="0px" y="0px" viewBox="0 0 460 460" style="enable-background:new 0 0 460 460;" xml:space="preserve" width="512px" height="512px">
<path d="M420.764,158.776c-22.115-17.336-52.382-31.29-87.888-40.576V51.706c0-14.143-11.913-26.612-33.546-35.111  C280.651,9.255,256.029,5.213,230,5.213s-50.651,4.042-69.33,11.382c-21.633,8.499-33.546,20.969-33.546,35.111V118.2  c-35.508,9.287-65.775,23.24-87.89,40.577C13.567,178.9,0,202.718,0,227.655v105.033c0,33.895,24.823,65.209,69.896,88.176  c42.932,21.875,99.791,33.923,160.104,33.923s117.172-12.048,160.104-33.923C435.177,397.897,460,366.583,460,332.688V227.655  C460,202.717,446.433,178.898,420.764,158.776z M160.67,238.157c18.679,7.34,43.301,11.382,69.33,11.382s50.651-4.042,69.33-11.382  c21.633-8.499,33.546-20.969,33.546-35.111v-32.79c27.529,12.206,43.562,28.57,43.562,45.095c0,15.54-14.619,31.396-40.109,43.502  c-28.234,13.408-65.995,20.793-106.328,20.793s-78.095-7.385-106.329-20.793c-25.49-12.106-40.109-27.962-40.109-43.502  c0-16.523,16.033-32.888,43.563-45.095v32.79C127.124,217.188,139.037,229.658,160.67,238.157z M167.983,35.209  c16.405-6.446,38.43-9.996,62.017-9.996s45.611,3.55,62.017,9.996c14.409,5.662,20.859,12.365,20.859,16.497  s-6.45,10.835-20.859,16.497c-16.405,6.446-38.43,9.996-62.017,9.996c-5.03,0-10.094-0.169-15.051-0.501  c-5.507-0.384-10.277,3.798-10.646,9.309c-0.37,5.51,3.798,10.277,9.309,10.646c5.399,0.362,10.914,0.546,16.389,0.546  c26.029,0,50.651-4.042,69.33-11.382c5.059-1.987,9.578-4.194,13.546-6.587v45.454c-0.001,0.033,0.001,0.065,0,0.097v77.265  c0,4.132-6.45,10.835-20.859,16.497c-16.405,6.446-38.43,9.996-62.017,9.996s-45.611-3.55-62.017-9.996  c-14.409-5.662-20.859-12.365-20.859-16.497V80.22c7.714,4.649,17.523,8.589,29.19,11.622c5.346,1.386,10.805-1.817,12.194-7.163  c1.389-5.346-1.817-10.805-7.163-12.194c-25.108-6.525-34.222-16.001-34.222-20.778C147.124,47.574,153.574,40.871,167.983,35.209z   M440,332.688c0,25.991-20.945,50.978-58.977,70.355c-40.173,20.47-93.808,31.743-151.023,31.743s-110.851-11.273-151.023-31.743  C40.945,383.666,20,358.68,20,332.688v-54.49c6.922,8.214,15.595,16.021,25.951,23.309c1.75,1.23,3.758,1.822,5.746,1.822  c3.145,0,6.24-1.479,8.188-4.246c3.178-4.518,2.093-10.755-2.424-13.934C40.371,273.125,20,253.39,20,227.655  c0-36.368,41.625-70.498,107.124-88.742v9.696c-40.497,15.779-63.563,39.865-63.563,66.742c0,23.921,18.301,45.786,51.53,61.567  c30.859,14.656,71.669,22.728,114.908,22.728s84.048-8.071,114.908-22.728c33.229-15.781,51.529-37.646,51.529-61.567  c0-26.879-23.065-50.964-63.562-66.742v-9.696C398.376,157.158,440,191.287,440,227.655c0,25.991-20.945,50.977-58.977,70.355  c-40.173,20.469-93.808,31.742-151.023,31.742c-51.011,0-100.323-9.239-138.852-26.018c-5.062-2.201-10.955,0.113-13.161,5.177  c-2.204,5.063,0.113,10.956,5.177,13.161c40.991,17.85,93.139,27.68,146.836,27.68c60.313,0,117.172-12.047,160.104-33.923  c21.333-10.869,38.121-23.611,49.896-37.608V332.688z" fill="#FFFFFF"/>
<g>
</g>
<g>
</g>
<g>
</g>
<g>
</g>
<g>
</g>
<g>
</g>
<g>
</g>
<g>
</g>
<g>
</g>
<g>
</g>
<g>
</g>
<g>
</g>
<g>
</g>
<g>
</g>
<g>
</g>
</svg>
