<?xml version="1.0" encoding="iso-8859-1"?>
<!-- Generator: Adobe Illustrator 19.0.0, SVG Export Plug-In . SVG Version: 6.00 Build 0)  -->
<svg xmlns="http://www.w3.org/2000/svg" xmlns:xlink="http://www.w3.org/1999/xlink" version="1.1" id="Capa_1" x="0px" y="0px" viewBox="0 0 512 512" style="enable-background:new 0 0 512 512;" xml:space="preserve" width="512px" height="512px">
<g>
	<g>
		<path d="M438.942,451.898c-5.518,0-9.997,4.479-9.997,9.997s4.479,9.997,9.997,9.997s9.997-4.479,9.997-9.997    S444.46,451.898,438.942,451.898z" fill="#FFFFFF"/>
	</g>
</g>
<g>
	<g>
		<path d="M375.962,451.898c-5.518,0-9.997,4.479-9.997,9.997s4.479,9.997,9.997,9.997s9.997-4.479,9.997-9.997    S381.48,451.898,375.962,451.898z" fill="#FFFFFF"/>
	</g>
</g>
<g>
	<g>
		<path d="M315.981,451.898c-5.518,0-9.997,4.479-9.997,9.997s4.479,9.997,9.997,9.997s9.997-4.479,9.997-9.997    S321.499,451.898,315.981,451.898z" fill="#FFFFFF"/>
	</g>
</g>
<g>
	<g>
		<path d="M250.002,451.898c-5.518,0-9.997,4.479-9.997,9.997s4.479,9.997,9.997,9.997s9.997-4.479,9.997-9.997    S255.52,451.898,250.002,451.898z" fill="#FFFFFF"/>
	</g>
</g>
<g>
	<g>
		<path d="M190.021,451.898c-5.518,0-9.997,4.479-9.997,9.997s4.479,9.997,9.997,9.997s9.997-4.479,9.997-9.997    S195.539,451.898,190.021,451.898z" fill="#FFFFFF"/>
	</g>
</g>
<g>
	<g>
		<path d="M130.04,451.898c-5.518,0-9.997,4.479-9.997,9.997s4.479,9.997,9.997,9.997s9.997-4.479,9.997-9.997    S135.558,451.898,130.04,451.898z" fill="#FFFFFF"/>
	</g>
</g>
<g>
	<g>
		<path d="M70.059,451.898c-5.518,0-9.997,4.479-9.997,9.997s4.479,9.997,9.997,9.997s9.997-4.479,9.997-9.997    S75.577,451.898,70.059,451.898z" fill="#FFFFFF"/>
	</g>
</g>
<g>
	<g>
		<path d="M461.935,411.83h-12.996V309.943c0-5.521-4.476-9.997-9.997-9.997h-82.974c-5.521,0-9.997,4.476-9.997,9.997V411.83    h-85.973V279.952c0-17.576-5.593-34.255-16.176-48.233c-9.723-12.843-23.341-22.586-38.547-27.651l-65.612-62.422l204.269-24.848    c3.594,4.004,7.617,7.559,12.035,10.634v32.558h-9.997c-3.787,0-7.248,2.139-8.941,5.526l-19.994,39.987    c-1.924,3.849-1.17,8.497,1.872,11.539l39.987,39.987c3.904,3.904,10.234,3.904,14.139,0c3.904-3.904,3.904-10.234,0-14.139    l-34.893-34.892l14.009-28.016h87.612l14.009,28.016l-34.893,34.892c-3.904,3.904-3.904,10.234,0,14.139    c1.952,1.952,4.511,2.928,7.069,2.928c2.558,0,5.117-0.976,7.069-2.928l39.987-39.987c3.042-3.043,3.797-7.691,1.872-11.539    l-19.994-39.987c-1.693-3.387-5.155-5.526-8.941-5.526h-9.997v-32.554c18.63-13.008,29.99-34.497,29.99-57.418    c0-38.586-31.392-69.978-69.978-69.978c-25.977,0-49.492,14.25-61.618,36.801L90.729,42.03c-0.877,0.019-1.719,0.161-2.524,0.39    c-5.905-1.579-11.988-2.392-18.146-2.392c-38.586,0-69.978,31.392-69.978,69.978c0,37.28,29.305,67.839,66.088,69.864    l45.451,58.657c-7.583,12.456-11.57,26.627-11.57,41.425v131.877H50.065c-13.368,0-25.939,5.209-35.397,14.668    C5.209,435.956,0,448.526,0,461.895c0,27.606,22.459,50.065,50.065,50.065h411.87c13.368,0,25.939-5.209,35.397-14.668    c9.459-9.458,14.668-22.029,14.668-35.397C512,434.289,489.541,411.83,461.935,411.83z M415.949,159.99h-39.987v-22.91    c6.457,1.921,13.194,2.916,19.994,2.916c6.8,0,13.537-0.995,19.994-2.916V159.99z M349.882,50.598    c0-0.001,0.001-0.002,0.001-0.003c7.839-18.565,25.923-30.56,46.072-30.56c27.561,0,49.984,22.423,49.984,49.984    c0,17.79-9.579,34.382-25.001,43.301c-7.555,4.373-16.194,6.683-24.983,6.683c-8.789,0-17.429-2.311-24.985-6.684    c-5.817-3.365-10.82-7.784-14.874-13.143c-6.623-8.732-10.124-19.161-10.124-30.157C345.973,63.271,347.288,56.737,349.882,50.598    z M365.965,319.94h62.98v91.971h-62.98V319.94z M197.158,222.46c0.006,0.002,0.013,0.004,0.02,0.006    c25.216,7.501,42.827,31.14,42.827,57.487c0,33.074-26.907,59.981-59.981,59.981s-59.981-26.908-59.981-59.981    c0-13.049,4.117-25.449,11.907-35.864c11.45-15.327,28.973-24.117,48.074-24.117C185.884,219.971,191.648,220.808,197.158,222.46z     M240.005,332.767v79.144H120.043v-79.144c14.666,16.636,36.112,27.16,59.981,27.16S225.339,349.402,240.005,332.767z     M327.201,56.991c-0.803,4.264-1.223,8.612-1.223,13.027c0,9.831,2.009,19.336,5.87,28.109l-192.779,23.451    c0.632-3.798,0.968-7.659,0.968-11.572c0-18.577-7.315-35.853-19.619-48.611L327.201,56.991z M68.035,159.938    c-26.626-1.066-47.961-23.05-47.961-49.932c0-27.561,22.423-49.984,49.984-49.984c5.483,0,10.882,0.883,16.046,2.624    c20.3,6.876,33.938,25.908,33.938,47.36c0,6.748-1.316,13.282-3.913,19.426c-0.683,1.617-1.479,3.251-2.354,4.834    c-8.258,14.844-23.587,24.476-40.49,25.594C71.573,159.424,69.761,159.441,68.035,159.938z M89.422,177.238    c13.526-3.916,25.662-11.866,34.681-22.8l48.266,45.919c-17.976,1.753-34.932,9.62-47.902,22.108L89.422,177.238z M483.079,483.04    c-5.651,5.651-13.161,8.764-21.144,8.764H50.065c-16.493,0-29.909-13.417-29.909-29.91c0-7.983,3.113-15.493,8.765-21.145    c5.651-5.651,13.161-8.764,21.144-8.764h59.981c0.414,0,0.82-0.032,1.221-0.081h137.515c0.401,0.049,0.807,0.081,1.221,0.081    h105.966c0.414,0,0.82-0.032,1.221-0.081h80.534c0.401,0.049,0.807,0.081,1.221,0.081h22.993c16.492,0,29.909,13.417,29.909,29.91    C491.844,469.878,488.731,477.388,483.079,483.04z" fill="#FFFFFF"/>
	</g>
</g>
<g>
	<g>
		<path d="M395.956,40.028c-16.537,0-29.991,13.454-29.991,29.991c0,16.537,13.454,29.99,29.991,29.99    c16.537,0,29.99-13.454,29.99-29.99C425.946,53.482,412.492,40.028,395.956,40.028z M395.956,80.016    c-5.512,0-9.997-4.485-9.997-9.997s4.485-9.997,9.997-9.997s9.997,4.485,9.997,9.997S401.468,80.016,395.956,80.016z" fill="#FFFFFF"/>
	</g>
</g>
<g>
	<g>
		<path d="M70.059,80.016c-16.537,0-29.991,13.454-29.991,29.991c0,16.537,13.454,29.99,29.991,29.99s29.991-13.454,29.991-29.99    C100.049,93.469,86.596,80.016,70.059,80.016z M70.059,120.003c-5.512,0-9.997-4.485-9.997-9.997c0-5.512,4.485-9.997,9.997-9.997    s9.997,4.485,9.997,9.997C80.056,115.518,75.571,120.003,70.059,120.003z" fill="#FFFFFF"/>
	</g>
</g>
<g>
	<g>
		<path d="M180.024,239.965c-22.049,0-39.987,17.937-39.987,39.987c0,22.049,17.938,39.987,39.987,39.987    s39.987-17.938,39.987-39.987C220.011,257.903,202.073,239.965,180.024,239.965z M180.024,299.946    c-11.025,0-19.994-8.969-19.994-19.994c0-11.024,8.969-19.994,19.994-19.994c11.024,0,19.994,8.969,19.994,19.994    C200.018,290.977,191.049,299.946,180.024,299.946z" fill="#FFFFFF"/>
	</g>
</g>
<g>
</g>
<g>
</g>
<g>
</g>
<g>
</g>
<g>
</g>
<g>
</g>
<g>
</g>
<g>
</g>
<g>
</g>
<g>
</g>
<g>
</g>
<g>
</g>
<g>
</g>
<g>
</g>
<g>
</g>
</svg>
